<?xml version="1.0" encoding="UTF-8" standalone="no"?>
<svg
   height="16"
   viewBox="0 0 16 16"
   width="16"
   version="1.1"
   id="svg6"
   sodipodi:docname="CSGStairs.svg"
   inkscape:version="1.1 (c68e22c387, 2021-05-23)"
   xmlns:inkscape="http://www.inkscape.org/namespaces/inkscape"
   xmlns:sodipodi="http://sodipodi.sourceforge.net/DTD/sodipodi-0.dtd"
   xmlns="http://www.w3.org/2000/svg"
   xmlns:svg="http://www.w3.org/2000/svg">
  <defs
     id="defs10" />
  <sodipodi:namedview
     id="namedview8"
     pagecolor="#505050"
     bordercolor="#eeeeee"
     borderopacity="1"
     inkscape:pageshadow="0"
     inkscape:pageopacity="0"
     inkscape:pagecheckerboard="0"
     showgrid="false"
     showguides="true"
     inkscape:guide-bbox="true"
     inkscape:zoom="45.254834"
     inkscape:cx="7.7229319"
     inkscape:cy="8.5515726"
     inkscape:window-width="1248"
     inkscape:window-height="887"
     inkscape:window-x="507"
     inkscape:window-y="76"
     inkscape:window-maximized="0"
     inkscape:current-layer="svg6">
    <sodipodi:guide
       position="2,14"
       orientation="0,1"
       id="guide827"
       inkscape:label=""
       inkscape:locked="false"
       inkscape:color="rgb(0,0,255)" />
    <sodipodi:guide
       position="2,14"
       orientation="-1,0"
       id="guide829"
       inkscape:label=""
       inkscape:locked="false"
       inkscape:color="rgb(0,0,255)" />
    <sodipodi:guide
       position="14,2"
       orientation="-1,0"
       id="guide833"
       inkscape:label=""
       inkscape:locked="false"
       inkscape:color="rgb(0,0,255)" />
    <sodipodi:guide
       position="14,2"
       orientation="0,1"
       id="guide835"
       inkscape:label=""
       inkscape:locked="false"
       inkscape:color="rgb(0,0,255)" />
    <sodipodi:guide
       position="10,6"
       orientation="0,1"
       id="guide837"
       inkscape:label=""
       inkscape:locked="false"
       inkscape:color="rgb(0,0,255)" />
    <sodipodi:guide
       position="6,10"
       orientation="0,1"
       id="guide839"
       inkscape:label=""
       inkscape:locked="false"
       inkscape:color="rgb(0,0,255)" />
    <sodipodi:guide
       position="6,10"
       orientation="-1,0"
       id="guide841"
       inkscape:label=""
       inkscape:locked="false"
       inkscape:color="rgb(0,0,255)" />
    <sodipodi:guide
       position="10,6"
       orientation="-1,0"
       id="guide843"
       inkscape:label=""
       inkscape:locked="false"
       inkscape:color="rgb(0,0,255)" />
    <sodipodi:guide
       position="16,0"
       orientation="0,1"
       id="guide1403"
       inkscape:label=""
       inkscape:locked="false"
       inkscape:color="rgb(0,0,255)" />
    <sodipodi:guide
       position="16,0"
       orientation="-1,0"
       id="guide1405"
       inkscape:label=""
       inkscape:locked="false"
       inkscape:color="rgb(0,0,255)" />
  </sodipodi:namedview>
  <path
     d="m12 9c-.55401 0-1 .44599-1 1v1h2v2h1c.55401 0 1-.44599 1-1v-2c0-.55401-.44599-1-1-1zm1 4h-2v-2h-1c-.55401 0-1 .44599-1 1v2c0 .55401.44599 1 1 1h2c.55401 0 1-.44599 1-1z"
     fill="#5fb2ff"
     id="path2" />
  <path
     id="path2193"
     style="color:#000000;fill:#fc7f7f;-inkscape-stroke:none;fill-opacity:1"
     d="M 9 1 L 9 5 L 5 5 L 5 9 L 1 9 L 1 15 L 2 15 L 8.2773438 15 C 8.1028641 14.704098 8 14.362856 8 14 L 8 13 L 3 13 L 3 11 L 7 11 L 7 7 L 11 7 L 11 3 L 13 3 L 13 8 L 14 8 C 14.362856 8 14.704098 8.1028641 15 8.2773438 L 15 1 L 9 1 z " />
</svg>
